<mxfile host="app.diagrams.net" modified="2021-03-11T14:10:57.567Z" agent="5.0 (Macintosh; Intel Mac OS X 10_15_6) AppleWebKit/605.1.15 (KHTML, like Gecko) Version/14.0.3 Safari/605.1.15" etag="a1GSD-ofTi9fWMp3JgZe" version="14.4.7" type="github">
  <diagram id="QZpgU7AW3_biy3uDhXpS" name="Page-1">
    <mxGraphModel dx="643" dy="897" grid="0" gridSize="10" guides="1" tooltips="1" connect="1" arrows="1" fold="1" page="0" pageScale="1" pageWidth="850" pageHeight="1100" math="0" shadow="0">
      <root>
        <mxCell id="0" />
        <mxCell id="1" parent="0" />
        <mxCell id="NTocWGaGcpuedMQ4YMqJ-2" value="Exploring" style="shape=folder;align=center;verticalAlign=middle;fontStyle=0;tabWidth=100;tabHeight=30;tabPosition=left;html=1;boundedLbl=1;labelInHeader=1;rounded=1;absoluteArcSize=1;arcSize=10;" parent="1" vertex="1">
          <mxGeometry x="20" y="102" width="454" height="753" as="geometry" />
        </mxCell>
        <mxCell id="NTocWGaGcpuedMQ4YMqJ-26" style="edgeStyle=orthogonalEdgeStyle;rounded=0;orthogonalLoop=1;jettySize=auto;html=1;exitX=0.5;exitY=1;exitDx=0;exitDy=0;" parent="1" source="NTocWGaGcpuedMQ4YMqJ-1" edge="1">
          <mxGeometry relative="1" as="geometry">
            <mxPoint x="207" y="132" as="targetPoint" />
          </mxGeometry>
        </mxCell>
        <mxCell id="NTocWGaGcpuedMQ4YMqJ-1" value="" style="ellipse;fillColor=#000000;strokeColor=none;" parent="1" vertex="1">
          <mxGeometry x="192" y="58" width="30" height="30" as="geometry" />
        </mxCell>
        <mxCell id="NTocWGaGcpuedMQ4YMqJ-6" style="edgeStyle=orthogonalEdgeStyle;rounded=0;orthogonalLoop=1;jettySize=auto;html=1;exitX=1;exitY=0.25;exitDx=0;exitDy=0;entryX=0;entryY=0.25;entryDx=0;entryDy=0;" parent="1" source="NTocWGaGcpuedMQ4YMqJ-3" target="NTocWGaGcpuedMQ4YMqJ-5" edge="1">
          <mxGeometry relative="1" as="geometry" />
        </mxCell>
        <mxCell id="NTocWGaGcpuedMQ4YMqJ-7" value="Yes" style="edgeLabel;html=1;align=center;verticalAlign=middle;resizable=0;points=[];" parent="NTocWGaGcpuedMQ4YMqJ-6" vertex="1" connectable="0">
          <mxGeometry x="-0.2419" relative="1" as="geometry">
            <mxPoint x="-14.81" as="offset" />
          </mxGeometry>
        </mxCell>
        <mxCell id="NTocWGaGcpuedMQ4YMqJ-10" style="edgeStyle=orthogonalEdgeStyle;rounded=0;orthogonalLoop=1;jettySize=auto;html=1;exitX=0.5;exitY=1;exitDx=0;exitDy=0;entryX=0.5;entryY=0;entryDx=0;entryDy=0;" parent="1" source="NTocWGaGcpuedMQ4YMqJ-3" target="NTocWGaGcpuedMQ4YMqJ-8" edge="1">
          <mxGeometry relative="1" as="geometry" />
        </mxCell>
        <mxCell id="NTocWGaGcpuedMQ4YMqJ-11" value="No" style="edgeLabel;html=1;align=center;verticalAlign=middle;resizable=0;points=[];" parent="NTocWGaGcpuedMQ4YMqJ-10" vertex="1" connectable="0">
          <mxGeometry x="-0.2655" relative="1" as="geometry">
            <mxPoint y="-4.29" as="offset" />
          </mxGeometry>
        </mxCell>
        <mxCell id="NTocWGaGcpuedMQ4YMqJ-3" value="Check&lt;br&gt;for&amp;nbsp;&lt;br&gt;Forward Wall" style="html=1;align=center;verticalAlign=top;rounded=1;absoluteArcSize=1;arcSize=10;dashed=0;" parent="1" vertex="1">
          <mxGeometry x="137" y="206" width="140" height="59" as="geometry" />
        </mxCell>
        <mxCell id="NTocWGaGcpuedMQ4YMqJ-9" style="edgeStyle=orthogonalEdgeStyle;rounded=0;orthogonalLoop=1;jettySize=auto;html=1;exitX=0;exitY=0.75;exitDx=0;exitDy=0;entryX=1;entryY=0.5;entryDx=0;entryDy=0;" parent="1" source="NTocWGaGcpuedMQ4YMqJ-5" target="NTocWGaGcpuedMQ4YMqJ-3" edge="1">
          <mxGeometry relative="1" as="geometry">
            <Array as="points">
              <mxPoint x="366" y="236" />
            </Array>
          </mxGeometry>
        </mxCell>
        <mxCell id="NTocWGaGcpuedMQ4YMqJ-5" value="Turn Left 90" style="html=1;align=center;verticalAlign=top;rounded=1;absoluteArcSize=1;arcSize=10;dashed=0;" parent="1" vertex="1">
          <mxGeometry x="366" y="211.5" width="85" height="40" as="geometry" />
        </mxCell>
        <mxCell id="NTocWGaGcpuedMQ4YMqJ-37" style="edgeStyle=orthogonalEdgeStyle;rounded=0;orthogonalLoop=1;jettySize=auto;html=1;exitX=0.5;exitY=1;exitDx=0;exitDy=0;entryX=0.5;entryY=0;entryDx=0;entryDy=0;" parent="1" source="NTocWGaGcpuedMQ4YMqJ-8" target="NTocWGaGcpuedMQ4YMqJ-12" edge="1">
          <mxGeometry relative="1" as="geometry" />
        </mxCell>
        <mxCell id="NTocWGaGcpuedMQ4YMqJ-8" value="Move Forward&lt;br&gt;1 Bock" style="html=1;align=center;verticalAlign=top;rounded=1;absoluteArcSize=1;arcSize=10;dashed=0;" parent="1" vertex="1">
          <mxGeometry x="137" y="304" width="140" height="40" as="geometry" />
        </mxCell>
        <mxCell id="NTocWGaGcpuedMQ4YMqJ-15" style="edgeStyle=orthogonalEdgeStyle;rounded=0;orthogonalLoop=1;jettySize=auto;html=1;exitX=0.5;exitY=1;exitDx=0;exitDy=0;entryX=0.5;entryY=0;entryDx=0;entryDy=0;" parent="1" source="NTocWGaGcpuedMQ4YMqJ-106" target="NTocWGaGcpuedMQ4YMqJ-14" edge="1">
          <mxGeometry relative="1" as="geometry">
            <mxPoint x="211" y="572" as="sourcePoint" />
          </mxGeometry>
        </mxCell>
        <mxCell id="NTocWGaGcpuedMQ4YMqJ-107" style="edgeStyle=orthogonalEdgeStyle;rounded=0;orthogonalLoop=1;jettySize=auto;html=1;exitX=0.5;exitY=1;exitDx=0;exitDy=0;entryX=0.5;entryY=0;entryDx=0;entryDy=0;" parent="1" source="NTocWGaGcpuedMQ4YMqJ-12" target="NTocWGaGcpuedMQ4YMqJ-106" edge="1">
          <mxGeometry relative="1" as="geometry" />
        </mxCell>
        <mxCell id="NTocWGaGcpuedMQ4YMqJ-12" value="Pull All Sensor Data" style="html=1;align=center;verticalAlign=top;rounded=1;absoluteArcSize=1;arcSize=10;dashed=0;" parent="1" vertex="1">
          <mxGeometry x="137" y="381" width="140" height="40" as="geometry" />
        </mxCell>
        <mxCell id="NTocWGaGcpuedMQ4YMqJ-20" style="edgeStyle=orthogonalEdgeStyle;rounded=0;orthogonalLoop=1;jettySize=auto;html=1;exitX=1;exitY=0.5;exitDx=0;exitDy=0;entryX=0;entryY=0.5;entryDx=0;entryDy=0;" parent="1" source="NTocWGaGcpuedMQ4YMqJ-14" target="NTocWGaGcpuedMQ4YMqJ-27" edge="1">
          <mxGeometry relative="1" as="geometry">
            <mxPoint x="211" y="634" as="targetPoint" />
          </mxGeometry>
        </mxCell>
        <mxCell id="NTocWGaGcpuedMQ4YMqJ-21" value="Yes" style="edgeLabel;html=1;align=center;verticalAlign=middle;resizable=0;points=[];" parent="NTocWGaGcpuedMQ4YMqJ-20" vertex="1" connectable="0">
          <mxGeometry x="-0.7486" y="1" relative="1" as="geometry">
            <mxPoint as="offset" />
          </mxGeometry>
        </mxCell>
        <mxCell id="NTocWGaGcpuedMQ4YMqJ-39" style="edgeStyle=orthogonalEdgeStyle;rounded=0;orthogonalLoop=1;jettySize=auto;html=1;exitX=0.5;exitY=1;exitDx=0;exitDy=0;entryX=0.5;entryY=0;entryDx=0;entryDy=0;" parent="1" source="NTocWGaGcpuedMQ4YMqJ-14" edge="1">
          <mxGeometry relative="1" as="geometry">
            <mxPoint x="211" y="609" as="targetPoint" />
          </mxGeometry>
        </mxCell>
        <mxCell id="NTocWGaGcpuedMQ4YMqJ-42" value="No" style="edgeLabel;html=1;align=center;verticalAlign=middle;resizable=0;points=[];" parent="NTocWGaGcpuedMQ4YMqJ-39" vertex="1" connectable="0">
          <mxGeometry x="-0.4527" relative="1" as="geometry">
            <mxPoint as="offset" />
          </mxGeometry>
        </mxCell>
        <mxCell id="NTocWGaGcpuedMQ4YMqJ-14" value="Check for Object" style="html=1;align=center;verticalAlign=top;rounded=1;absoluteArcSize=1;arcSize=10;dashed=0;" parent="1" vertex="1">
          <mxGeometry x="141" y="538" width="140" height="40" as="geometry" />
        </mxCell>
        <mxCell id="NTocWGaGcpuedMQ4YMqJ-25" style="edgeStyle=orthogonalEdgeStyle;rounded=0;orthogonalLoop=1;jettySize=auto;html=1;exitX=0.5;exitY=1;exitDx=0;exitDy=0;entryX=0.5;entryY=0;entryDx=0;entryDy=0;" parent="1" source="NTocWGaGcpuedMQ4YMqJ-23" target="NTocWGaGcpuedMQ4YMqJ-3" edge="1">
          <mxGeometry relative="1" as="geometry" />
        </mxCell>
        <mxCell id="NTocWGaGcpuedMQ4YMqJ-23" value="" style="ellipse;fillColor=#000000;strokeColor=none;" parent="1" vertex="1">
          <mxGeometry x="192" y="150" width="30" height="30" as="geometry" />
        </mxCell>
        <mxCell id="NTocWGaGcpuedMQ4YMqJ-60" style="edgeStyle=orthogonalEdgeStyle;rounded=0;orthogonalLoop=1;jettySize=auto;html=1;exitX=1;exitY=0.5;exitDx=0;exitDy=0;" parent="1" source="NTocWGaGcpuedMQ4YMqJ-27" edge="1">
          <mxGeometry relative="1" as="geometry">
            <mxPoint x="890" y="486" as="targetPoint" />
          </mxGeometry>
        </mxCell>
        <mxCell id="NTocWGaGcpuedMQ4YMqJ-27" value="" style="ellipse;html=1;shape=endState;fillColor=#000000;strokeColor=#000000;" parent="1" vertex="1">
          <mxGeometry x="374" y="543" width="30" height="30" as="geometry" />
        </mxCell>
        <mxCell id="NTocWGaGcpuedMQ4YMqJ-48" style="edgeStyle=orthogonalEdgeStyle;rounded=0;orthogonalLoop=1;jettySize=auto;html=1;exitX=0.5;exitY=1;exitDx=0;exitDy=0;entryX=0.5;entryY=0;entryDx=0;entryDy=0;" parent="1" source="NTocWGaGcpuedMQ4YMqJ-44" target="NTocWGaGcpuedMQ4YMqJ-45" edge="1">
          <mxGeometry relative="1" as="geometry" />
        </mxCell>
        <mxCell id="NTocWGaGcpuedMQ4YMqJ-49" value="Yes" style="edgeLabel;html=1;align=center;verticalAlign=middle;resizable=0;points=[];" parent="NTocWGaGcpuedMQ4YMqJ-48" vertex="1" connectable="0">
          <mxGeometry x="-0.4296" y="1" relative="1" as="geometry">
            <mxPoint as="offset" />
          </mxGeometry>
        </mxCell>
        <mxCell id="NTocWGaGcpuedMQ4YMqJ-54" style="edgeStyle=orthogonalEdgeStyle;rounded=0;orthogonalLoop=1;jettySize=auto;html=1;exitX=1;exitY=0.5;exitDx=0;exitDy=0;entryX=0;entryY=0.5;entryDx=0;entryDy=0;" parent="1" source="NTocWGaGcpuedMQ4YMqJ-44" target="NTocWGaGcpuedMQ4YMqJ-53" edge="1">
          <mxGeometry relative="1" as="geometry" />
        </mxCell>
        <mxCell id="NTocWGaGcpuedMQ4YMqJ-55" value="No" style="edgeLabel;html=1;align=center;verticalAlign=middle;resizable=0;points=[];" parent="NTocWGaGcpuedMQ4YMqJ-54" vertex="1" connectable="0">
          <mxGeometry x="-0.228" y="1" relative="1" as="geometry">
            <mxPoint x="-23" y="1" as="offset" />
          </mxGeometry>
        </mxCell>
        <mxCell id="NTocWGaGcpuedMQ4YMqJ-44" value="Any&#xa;Adjacent Unknown&#xa;Blocks?" style="rhombus;" parent="1" vertex="1">
          <mxGeometry x="142" y="609" width="138" height="71" as="geometry" />
        </mxCell>
        <mxCell id="NTocWGaGcpuedMQ4YMqJ-50" style="edgeStyle=orthogonalEdgeStyle;rounded=0;orthogonalLoop=1;jettySize=auto;html=1;exitX=0;exitY=0.5;exitDx=0;exitDy=0;entryX=0;entryY=0.5;entryDx=0;entryDy=0;" parent="1" source="NTocWGaGcpuedMQ4YMqJ-45" target="NTocWGaGcpuedMQ4YMqJ-3" edge="1">
          <mxGeometry relative="1" as="geometry">
            <Array as="points">
              <mxPoint x="76" y="758" />
              <mxPoint x="76" y="236" />
            </Array>
          </mxGeometry>
        </mxCell>
        <mxCell id="NTocWGaGcpuedMQ4YMqJ-45" value="Rotate X Degrees&lt;br&gt;to Face towards First&lt;br&gt;Unknown Block (going&lt;br&gt;in a Counter-Clockwise&lt;br&gt;Direction)" style="html=1;align=center;verticalAlign=top;rounded=1;absoluteArcSize=1;arcSize=10;dashed=0;" parent="1" vertex="1">
          <mxGeometry x="142" y="717" width="140" height="82" as="geometry" />
        </mxCell>
        <mxCell id="NTocWGaGcpuedMQ4YMqJ-59" style="edgeStyle=orthogonalEdgeStyle;rounded=0;orthogonalLoop=1;jettySize=auto;html=1;exitX=1;exitY=0.5;exitDx=0;exitDy=0;" parent="1" source="NTocWGaGcpuedMQ4YMqJ-53" edge="1">
          <mxGeometry relative="1" as="geometry">
            <mxPoint x="894" y="718" as="targetPoint" />
          </mxGeometry>
        </mxCell>
        <mxCell id="NTocWGaGcpuedMQ4YMqJ-98" value="Move to Closest Unkown Block" style="edgeLabel;html=1;align=center;verticalAlign=middle;resizable=0;points=[];" parent="NTocWGaGcpuedMQ4YMqJ-59" vertex="1" connectable="0">
          <mxGeometry x="-0.1973" y="-5" relative="1" as="geometry">
            <mxPoint x="-6.29" y="-4.99" as="offset" />
          </mxGeometry>
        </mxCell>
        <mxCell id="NTocWGaGcpuedMQ4YMqJ-53" value="" style="ellipse;html=1;shape=endState;fillColor=#000000;strokeColor=#000000;" parent="1" vertex="1">
          <mxGeometry x="374" y="629.5" width="30" height="30" as="geometry" />
        </mxCell>
        <mxCell id="NTocWGaGcpuedMQ4YMqJ-57" value="Pick Up Object" style="shape=folder;align=center;verticalAlign=middle;fontStyle=0;tabWidth=100;tabHeight=30;tabPosition=left;html=1;boundedLbl=1;labelInHeader=1;rounded=1;absoluteArcSize=1;arcSize=10;" parent="1" vertex="1">
          <mxGeometry x="517" y="104" width="634" height="362" as="geometry" />
        </mxCell>
        <mxCell id="NTocWGaGcpuedMQ4YMqJ-101" style="edgeStyle=orthogonalEdgeStyle;rounded=0;orthogonalLoop=1;jettySize=auto;html=1;exitX=0;exitY=0;exitDx=0;exitDy=242.5;exitPerimeter=0;entryX=1;entryY=0.5;entryDx=0;entryDy=0;" parent="1" source="NTocWGaGcpuedMQ4YMqJ-58" target="NTocWGaGcpuedMQ4YMqJ-97" edge="1">
          <mxGeometry relative="1" as="geometry">
            <Array as="points">
              <mxPoint x="574" y="1096" />
            </Array>
          </mxGeometry>
        </mxCell>
        <mxCell id="NTocWGaGcpuedMQ4YMqJ-58" value="Move to Destication" style="shape=folder;align=center;verticalAlign=middle;fontStyle=0;tabWidth=131;tabHeight=32;tabPosition=left;html=1;boundedLbl=1;labelInHeader=1;rounded=1;absoluteArcSize=1;arcSize=10;" parent="1" vertex="1">
          <mxGeometry x="548" y="828" width="680" height="477" as="geometry" />
        </mxCell>
        <mxCell id="NTocWGaGcpuedMQ4YMqJ-65" style="edgeStyle=orthogonalEdgeStyle;rounded=0;orthogonalLoop=1;jettySize=auto;html=1;exitX=1;exitY=0.5;exitDx=0;exitDy=0;entryX=0.5;entryY=0;entryDx=0;entryDy=0;" parent="1" source="NTocWGaGcpuedMQ4YMqJ-61" target="NTocWGaGcpuedMQ4YMqJ-62" edge="1">
          <mxGeometry relative="1" as="geometry" />
        </mxCell>
        <mxCell id="NTocWGaGcpuedMQ4YMqJ-61" value="" style="ellipse;fillColor=#000000;strokeColor=none;" parent="1" vertex="1">
          <mxGeometry x="686" y="903" width="30" height="30" as="geometry" />
        </mxCell>
        <mxCell id="NTocWGaGcpuedMQ4YMqJ-66" style="edgeStyle=orthogonalEdgeStyle;rounded=0;orthogonalLoop=1;jettySize=auto;html=1;exitX=0.5;exitY=1;exitDx=0;exitDy=0;entryX=0.5;entryY=0;entryDx=0;entryDy=0;" parent="1" source="NTocWGaGcpuedMQ4YMqJ-62" target="NTocWGaGcpuedMQ4YMqJ-64" edge="1">
          <mxGeometry relative="1" as="geometry" />
        </mxCell>
        <mxCell id="NTocWGaGcpuedMQ4YMqJ-75" style="rounded=0;orthogonalLoop=1;jettySize=auto;html=1;exitX=0;exitY=1;exitDx=0;exitDy=0;entryX=0.5;entryY=0;entryDx=0;entryDy=0;" parent="1" source="NTocWGaGcpuedMQ4YMqJ-64" target="NTocWGaGcpuedMQ4YMqJ-71" edge="1">
          <mxGeometry relative="1" as="geometry" />
        </mxCell>
        <mxCell id="NTocWGaGcpuedMQ4YMqJ-91" value="Left" style="edgeLabel;html=1;align=center;verticalAlign=middle;resizable=0;points=[];" parent="NTocWGaGcpuedMQ4YMqJ-75" vertex="1" connectable="0">
          <mxGeometry x="-0.197" y="-7" relative="1" as="geometry">
            <mxPoint x="29.07" y="-22.39" as="offset" />
          </mxGeometry>
        </mxCell>
        <mxCell id="NTocWGaGcpuedMQ4YMqJ-76" style="edgeStyle=orthogonalEdgeStyle;rounded=0;orthogonalLoop=1;jettySize=auto;html=1;exitX=0.5;exitY=1;exitDx=0;exitDy=0;entryX=0.5;entryY=0;entryDx=0;entryDy=0;" parent="1" source="NTocWGaGcpuedMQ4YMqJ-64" target="NTocWGaGcpuedMQ4YMqJ-74" edge="1">
          <mxGeometry relative="1" as="geometry" />
        </mxCell>
        <mxCell id="NTocWGaGcpuedMQ4YMqJ-92" value="Behind" style="edgeLabel;html=1;align=center;verticalAlign=middle;resizable=0;points=[];" parent="NTocWGaGcpuedMQ4YMqJ-76" vertex="1" connectable="0">
          <mxGeometry x="-0.6982" relative="1" as="geometry">
            <mxPoint y="3.09" as="offset" />
          </mxGeometry>
        </mxCell>
        <mxCell id="NTocWGaGcpuedMQ4YMqJ-79" style="edgeStyle=orthogonalEdgeStyle;rounded=0;orthogonalLoop=1;jettySize=auto;html=1;exitX=1;exitY=0.5;exitDx=0;exitDy=0;entryX=0;entryY=0.5;entryDx=0;entryDy=0;" parent="1" source="NTocWGaGcpuedMQ4YMqJ-64" target="NTocWGaGcpuedMQ4YMqJ-68" edge="1">
          <mxGeometry relative="1" as="geometry" />
        </mxCell>
        <mxCell id="NTocWGaGcpuedMQ4YMqJ-94" value="Right" style="edgeLabel;html=1;align=center;verticalAlign=middle;resizable=0;points=[];" parent="NTocWGaGcpuedMQ4YMqJ-79" vertex="1" connectable="0">
          <mxGeometry x="-0.3392" relative="1" as="geometry">
            <mxPoint as="offset" />
          </mxGeometry>
        </mxCell>
        <mxCell id="NTocWGaGcpuedMQ4YMqJ-81" style="rounded=0;orthogonalLoop=1;jettySize=auto;html=1;exitX=1;exitY=1;exitDx=0;exitDy=0;entryX=0;entryY=0;entryDx=0;entryDy=0;" parent="1" source="NTocWGaGcpuedMQ4YMqJ-64" target="NTocWGaGcpuedMQ4YMqJ-69" edge="1">
          <mxGeometry relative="1" as="geometry" />
        </mxCell>
        <mxCell id="NTocWGaGcpuedMQ4YMqJ-93" value="Forward" style="edgeLabel;html=1;align=center;verticalAlign=middle;resizable=0;points=[];" parent="NTocWGaGcpuedMQ4YMqJ-81" vertex="1" connectable="0">
          <mxGeometry x="-0.7681" relative="1" as="geometry">
            <mxPoint as="offset" />
          </mxGeometry>
        </mxCell>
        <mxCell id="NTocWGaGcpuedMQ4YMqJ-64" value="Check for next Block to move to" style="rhombus;" parent="1" vertex="1">
          <mxGeometry x="683.38" y="1040" width="206.25" height="102" as="geometry" />
        </mxCell>
        <mxCell id="NTocWGaGcpuedMQ4YMqJ-80" style="edgeStyle=orthogonalEdgeStyle;rounded=0;orthogonalLoop=1;jettySize=auto;html=1;exitX=0.5;exitY=1;exitDx=0;exitDy=0;entryX=0.25;entryY=0;entryDx=0;entryDy=0;" parent="1" source="NTocWGaGcpuedMQ4YMqJ-68" target="NTocWGaGcpuedMQ4YMqJ-69" edge="1">
          <mxGeometry relative="1" as="geometry" />
        </mxCell>
        <mxCell id="NTocWGaGcpuedMQ4YMqJ-68" value="Rotate Right 90" style="html=1;align=center;verticalAlign=top;rounded=1;absoluteArcSize=1;arcSize=10;dashed=0;" parent="1" vertex="1">
          <mxGeometry x="924" y="1071" width="98" height="40" as="geometry" />
        </mxCell>
        <mxCell id="NTocWGaGcpuedMQ4YMqJ-95" style="edgeStyle=orthogonalEdgeStyle;rounded=0;orthogonalLoop=1;jettySize=auto;html=1;exitX=0.75;exitY=0;exitDx=0;exitDy=0;entryX=0.75;entryY=1;entryDx=0;entryDy=0;" parent="1" source="NTocWGaGcpuedMQ4YMqJ-69" target="NTocWGaGcpuedMQ4YMqJ-85" edge="1">
          <mxGeometry relative="1" as="geometry" />
        </mxCell>
        <mxCell id="NTocWGaGcpuedMQ4YMqJ-69" value="Move Forward 1 Block" style="html=1;align=center;verticalAlign=top;rounded=1;absoluteArcSize=1;arcSize=10;dashed=0;" parent="1" vertex="1">
          <mxGeometry x="972" y="1221" width="140" height="40" as="geometry" />
        </mxCell>
        <mxCell id="NTocWGaGcpuedMQ4YMqJ-82" style="edgeStyle=none;rounded=0;orthogonalLoop=1;jettySize=auto;html=1;exitX=1;exitY=0.5;exitDx=0;exitDy=0;entryX=0;entryY=0.5;entryDx=0;entryDy=0;" parent="1" source="NTocWGaGcpuedMQ4YMqJ-71" target="NTocWGaGcpuedMQ4YMqJ-69" edge="1">
          <mxGeometry relative="1" as="geometry" />
        </mxCell>
        <mxCell id="NTocWGaGcpuedMQ4YMqJ-71" value="Rotate Left 90" style="html=1;align=center;verticalAlign=top;rounded=1;absoluteArcSize=1;arcSize=10;dashed=0;" parent="1" vertex="1">
          <mxGeometry x="591.38" y="1221" width="92" height="40" as="geometry" />
        </mxCell>
        <mxCell id="NTocWGaGcpuedMQ4YMqJ-83" style="edgeStyle=none;rounded=0;orthogonalLoop=1;jettySize=auto;html=1;exitX=1;exitY=1;exitDx=0;exitDy=0;entryX=0;entryY=0.25;entryDx=0;entryDy=0;" parent="1" source="NTocWGaGcpuedMQ4YMqJ-74" target="NTocWGaGcpuedMQ4YMqJ-69" edge="1">
          <mxGeometry relative="1" as="geometry" />
        </mxCell>
        <mxCell id="NTocWGaGcpuedMQ4YMqJ-74" value="Rotate 180" style="html=1;align=center;verticalAlign=top;rounded=1;absoluteArcSize=1;arcSize=10;dashed=0;" parent="1" vertex="1">
          <mxGeometry x="743.76" y="1181" width="85.49" height="40" as="geometry" />
        </mxCell>
        <mxCell id="NTocWGaGcpuedMQ4YMqJ-88" style="edgeStyle=orthogonalEdgeStyle;rounded=0;orthogonalLoop=1;jettySize=auto;html=1;exitX=1;exitY=0.5;exitDx=0;exitDy=0;entryX=0;entryY=0.5;entryDx=0;entryDy=0;" parent="1" source="NTocWGaGcpuedMQ4YMqJ-85" target="NTocWGaGcpuedMQ4YMqJ-87" edge="1">
          <mxGeometry relative="1" as="geometry" />
        </mxCell>
        <mxCell id="NTocWGaGcpuedMQ4YMqJ-90" style="edgeStyle=orthogonalEdgeStyle;rounded=0;orthogonalLoop=1;jettySize=auto;html=1;exitX=0;exitY=0.5;exitDx=0;exitDy=0;entryX=1;entryY=0;entryDx=0;entryDy=0;" parent="1" source="NTocWGaGcpuedMQ4YMqJ-85" target="NTocWGaGcpuedMQ4YMqJ-64" edge="1">
          <mxGeometry relative="1" as="geometry">
            <Array as="points">
              <mxPoint x="927" y="976" />
              <mxPoint x="927" y="1042" />
              <mxPoint x="838" y="1042" />
            </Array>
          </mxGeometry>
        </mxCell>
        <mxCell id="NTocWGaGcpuedMQ4YMqJ-85" value="Check if at Destination" style="html=1;align=center;verticalAlign=top;rounded=1;absoluteArcSize=1;arcSize=10;dashed=0;" parent="1" vertex="1">
          <mxGeometry x="972" y="956" width="140" height="40" as="geometry" />
        </mxCell>
        <mxCell id="NTocWGaGcpuedMQ4YMqJ-87" value="" style="ellipse;html=1;shape=endState;fillColor=#000000;strokeColor=#000000;" parent="1" vertex="1">
          <mxGeometry x="1158" y="961" width="30" height="30" as="geometry" />
        </mxCell>
        <mxCell id="NTocWGaGcpuedMQ4YMqJ-102" style="edgeStyle=orthogonalEdgeStyle;rounded=0;orthogonalLoop=1;jettySize=auto;html=1;exitX=0.5;exitY=0;exitDx=0;exitDy=0;entryX=0.458;entryY=0.996;entryDx=0;entryDy=0;entryPerimeter=0;" parent="1" source="NTocWGaGcpuedMQ4YMqJ-97" target="NTocWGaGcpuedMQ4YMqJ-2" edge="1">
          <mxGeometry relative="1" as="geometry">
            <mxPoint x="228.76599999999962" y="944.3439999999998" as="targetPoint" />
          </mxGeometry>
        </mxCell>
        <mxCell id="NTocWGaGcpuedMQ4YMqJ-103" value="No" style="edgeLabel;html=1;align=center;verticalAlign=middle;resizable=0;points=[];" parent="NTocWGaGcpuedMQ4YMqJ-102" vertex="1" connectable="0">
          <mxGeometry x="-0.7521" relative="1" as="geometry">
            <mxPoint as="offset" />
          </mxGeometry>
        </mxCell>
        <mxCell id="NTocWGaGcpuedMQ4YMqJ-104" style="edgeStyle=orthogonalEdgeStyle;rounded=0;orthogonalLoop=1;jettySize=auto;html=1;exitX=0.5;exitY=1;exitDx=0;exitDy=0;entryX=0.5;entryY=0;entryDx=0;entryDy=0;" parent="1" source="NTocWGaGcpuedMQ4YMqJ-97" target="NTocWGaGcpuedMQ4YMqJ-100" edge="1">
          <mxGeometry relative="1" as="geometry" />
        </mxCell>
        <mxCell id="NTocWGaGcpuedMQ4YMqJ-105" value="Yes" style="edgeLabel;html=1;align=center;verticalAlign=middle;resizable=0;points=[];" parent="NTocWGaGcpuedMQ4YMqJ-104" vertex="1" connectable="0">
          <mxGeometry x="-0.7681" y="1" relative="1" as="geometry">
            <mxPoint as="offset" />
          </mxGeometry>
        </mxCell>
        <mxCell id="NTocWGaGcpuedMQ4YMqJ-97" value="Do We Have the &#xa;Object yet?" style="rhombus;" parent="1" vertex="1">
          <mxGeometry x="140" y="1039.5" width="177" height="112.5" as="geometry" />
        </mxCell>
        <mxCell id="NTocWGaGcpuedMQ4YMqJ-100" value="" style="ellipse;html=1;shape=endState;fillColor=#000000;strokeColor=#000000;" parent="1" vertex="1">
          <mxGeometry x="213.5" y="1221" width="30" height="30" as="geometry" />
        </mxCell>
        <mxCell id="NTocWGaGcpuedMQ4YMqJ-106" value="Update Navigation Map" style="html=1;align=center;verticalAlign=top;rounded=1;absoluteArcSize=1;arcSize=10;dashed=0;" parent="1" vertex="1">
          <mxGeometry x="140" y="459" width="140" height="40" as="geometry" />
        </mxCell>
        <mxCell id="NTocWGaGcpuedMQ4YMqJ-62" value="Determine the Path to take&lt;br&gt;to the destination Block" style="html=1;align=center;verticalAlign=top;rounded=1;absoluteArcSize=1;arcSize=10;dashed=0;" parent="1" vertex="1">
          <mxGeometry x="671" y="941" width="231" height="55" as="geometry" />
        </mxCell>
        <mxCell id="2PWvF5mvC0U-9_okiD9z-1" value="Note:&lt;br&gt;the term Block here is equivalent to Tile&lt;br&gt;(they mean a square in the maze) &amp;nbsp;" style="shape=note2;boundedLbl=1;whiteSpace=wrap;html=1;size=25;verticalAlign=top;align=center;fillColor=#fff2cc;strokeColor=#d6b656;" vertex="1" parent="1">
          <mxGeometry x="390" y="-33" width="233" height="93" as="geometry" />
        </mxCell>
        <mxCell id="2PWvF5mvC0U-9_okiD9z-2" value="Rotate until object&lt;br&gt;is in&lt;br&gt;center&amp;nbsp;of optical sensor&amp;nbsp;" style="html=1;align=center;verticalAlign=top;rounded=1;absoluteArcSize=1;arcSize=10;dashed=0;" vertex="1" parent="1">
          <mxGeometry x="730" y="188" width="140" height="68" as="geometry" />
        </mxCell>
        <mxCell id="2PWvF5mvC0U-9_okiD9z-3" value="Move closer until either..." style="html=1;align=center;verticalAlign=top;rounded=1;absoluteArcSize=1;arcSize=10;dashed=0;" vertex="1" parent="1">
          <mxGeometry x="732" y="282" width="140" height="40" as="geometry" />
        </mxCell>
        <mxCell id="2PWvF5mvC0U-9_okiD9z-4" value="use FFT of the sensor&#xa;shows that the object is the&#xa;correct distance away&#xa;(distance is based on size of object)" style="rhombus;" vertex="1" parent="1">
          <mxGeometry x="657.5" y="333" width="285" height="126" as="geometry" />
        </mxCell>
        <mxCell id="2PWvF5mvC0U-9_okiD9z-5" value="Object is not in&#xa;center of image" style="rhombus;" vertex="1" parent="1">
          <mxGeometry x="560.38" y="206" width="123" height="82" as="geometry" />
        </mxCell>
        <mxCell id="2PWvF5mvC0U-9_okiD9z-6" value="" style="ellipse;fillColor=#000000;strokeColor=none;" vertex="1" parent="1">
          <mxGeometry x="787" y="139" width="30" height="30" as="geometry" />
        </mxCell>
        <mxCell id="2PWvF5mvC0U-9_okiD9z-7" value="" style="ellipse;html=1;shape=endState;fillColor=#000000;strokeColor=#000000;" vertex="1" parent="1">
          <mxGeometry x="1058" y="383" width="30" height="30" as="geometry" />
        </mxCell>
      </root>
    </mxGraphModel>
  </diagram>
</mxfile>
